<?xml version="1.0"?>
<svg xmlns="http://www.w3.org/2000/svg" id="Layer_1" enable-background="new 0 0 511.992 511.992" height="512px" viewBox="0 0 511.992 511.992" width="512px" class=""><g><path id="XMLID_757_" d="m506.905 62.854c-2.96-2.775-6.832-4.304-10.903-4.304h-462.149c-4.143 0-7.5 3.358-7.5 7.5s3.357 7.5 7.5 7.5h158.582c-.021.329-.052.657-.052.989v18.524h-126.835c-4.143 0-7.5 3.358-7.5 7.5s3.357 7.5 7.5 7.5h126.835v19.513h-95.139c-4.143 0-7.5 3.358-7.5 7.5s3.357 7.5 7.5 7.5h95.139v19.513h-63.443c-4.143 0-7.5 3.358-7.5 7.5s3.357 7.5 7.5 7.5h63.443v57.439h-176.393c-4.072 0-7.944 1.529-10.863 4.267-3.259 3.011-5.127 7.284-5.127 11.723v90.783c0 4.142 3.357 7.5 7.5 7.5s7.5-3.358 7.5-7.5v-83.217l102.675 85.898-102.675 85.904v-53.189c0-4.142-3.357-7.5-7.5-7.5s-7.5 3.358-7.5 7.5v60.756c0 4.438 1.868 8.711 5.087 11.686 2.96 2.775 6.832 4.304 10.903 4.304h462.149c4.143 0 7.5-3.358 7.5-7.5s-3.357-7.5-7.5-7.5h-158.581c.021-.33.052-.658.052-.99v-18.523h126.835c4.143 0 7.5-3.358 7.5-7.5s-3.357-7.5-7.5-7.5h-126.836v-19.513h95.139c4.143 0 7.5-3.358 7.5-7.5s-3.357-7.5-7.5-7.5h-95.139v-19.513h63.443c4.143 0 7.5-3.358 7.5-7.5s-3.357-7.5-7.5-7.5h-63.443v-57.439h55.689c4.143 0 7.5-3.358 7.5-7.5s-3.357-7.5-7.5-7.5h-55.689v-11.945c0-4.439-1.868-8.712-5.086-11.685-2.96-2.776-6.832-4.305-10.904-4.305h-49.699l67.825-56.747 20.182 16.884c2.973 2.488 6.615 3.731 10.26 3.731 3.644 0 7.288-1.244 10.26-3.73l20.182-16.885 101.213 84.682h-73.149c-4.143 0-7.5 3.358-7.5 7.5s3.357 7.5 7.5 7.5h85.309c4.072 0 7.944-1.529 10.863-4.267 3.259-3.011 5.127-7.284 5.127-11.723v-186.936c0-4.438-1.868-8.711-5.087-11.685zm-215.446 186.675-53.223 44.526c-3.177 2.658-3.598 7.388-.939 10.565 1.483 1.773 3.611 2.688 5.756 2.688 1.697 0 3.405-.573 4.809-1.748l56.748-47.475v171.802l-102.674-85.904 18.821-15.746c3.177-2.658 3.598-7.388.939-10.565-2.658-3.177-7.389-3.599-10.564-.94l-50.691 42.41c-.369.308-.902.307-1.27 0l-131.021-109.613zm-141.914 121.116c2.973 2.488 6.615 3.731 10.26 3.731 3.644 0 7.288-1.244 10.26-3.73l20.182-16.885 101.213 84.681h-263.31l101.213-84.681zm155.009-120.44c-.099-.142-.202-.283-.301-.426.016.014.033.018.05.033.091.085.19.217.251.393zm-74.01-15.676h-23.161v-152.424l102.675 85.898zm122.278-51.367c-.369.308-.902.308-1.27 0l-131.018-109.612h263.308zm144.17-101.057v171.802l-102.674-85.904z" data-original="#000000" class="active-path" data-old_color="#000000" fill="#999CAA"/></g> </svg>
