<?xml version="1.0"?>
<svg xmlns="http://www.w3.org/2000/svg" height="512px" viewBox="-58 0 511 512" width="512px" class=""><g><path d="m294.464844 370.230469c18.8125-22.078125 30.292968-50.542969 30.292968-81.371094 0-68.414063-57.351562-126.226563-126.140624-126.359375-.074219 0-.148438-.003906-.222657-.003906-68.410156-.003906-126.363281 57.355468-126.363281 126.363281 0 68.996094 57.632812 126.378906 126.390625 126.367187 38.015625-.007812 72.683594-17.578124 96.042969-44.996093zm-207.175782-73.871094h42.21875c.753907 16.015625 3.871094 30.3125 8.246094 42.832031-11.195312 4.863282-20.734375 10.613282-28.574218 16.253906-12.5-16.707031-20.417969-37.027343-21.890626-59.085937zm21.890626-74.082031c7.839843 5.640625 17.378906 11.390625 28.570312 16.253906-4.371094 12.519531-7.488281 26.816406-8.246094 42.828125h-42.21875c1.476563-22.054687 9.394532-42.375 21.894532-59.082031zm200.320312 59.082031h-42.21875c-.753906-16.011719-3.875-30.308594-8.246094-42.832031 11.195313-4.859375 20.730469-10.609375 28.574219-16.25 12.5 16.707031 20.414063 37.027344 21.890625 59.082031zm-57.234375 0h-46.371094v-30.550781c14.433594-.679688 27.472657-3.28125 39.09375-7 3.859375 11.125 6.554688 23.636718 7.277344 37.550781zm-46.371094-45.566406v-50.367188c9.609375 8.621094 23.320313 23.40625 33.375 44.453125-9.992187 3.097656-21.121093 5.273438-33.375 5.914063zm-15-50.382813v50.382813c-12.292969-.640625-23.453125-2.832031-33.464843-5.945313 4.230468-8.839844 9.472656-17.316406 15.730468-25.394531 6.269532-8.089844 12.585938-14.4375 17.734375-19.042969zm0 65.398438v30.550781h-46.375c.660157-13.082031 3.0625-25.628906 7.1875-37.578125 11.644531 3.730469 24.714844 6.347656 39.1875 7.027344zm-46.371093 45.550781h46.371093v30.554687c-14.433593.679688-27.472656 3.28125-39.097656 7-3.859375-11.125-6.550781-23.636718-7.273437-37.554687zm46.371093 45.570313v50.367187c-9.613281-8.621094-23.320312-23.40625-33.375-44.453125 9.988281-3.097656 21.121094-5.273438 33.375-5.914062zm15 50.382812v-50.382812c12.292969.640624 23.453125 2.832031 33.464844 5.945312-4.230469 8.84375-9.472656 17.316406-15.730469 25.394531-6.269531 8.089844-12.585937 14.4375-17.734375 19.042969zm0-65.398438v-30.554687h46.375c-.664062 13.085937-3.0625 25.632813-7.1875 37.582031-11.644531-3.730468-24.714843-6.347656-39.1875-7.027344zm61.386719-30.554687h42.21875c-1.472656 22.058594-9.390625 42.378906-21.890625 59.085937-7.84375-5.640624-17.378906-11.390624-28.574219-16.253906 4.371094-12.519531 7.492188-26.816406 8.246094-42.832031zm10.507812-85.503906c-6.792968 4.792969-14.9375 9.628906-24.40625 13.765625-5.625-12.082032-12.199218-22.0625-18.292968-29.863282-4.457032-5.703124-8.910156-10.605468-13.035156-14.722656 21.554687 4.683594 40.800781 15.621094 55.734374 30.820313zm-103.054687-30.820313c-4.125 4.117188-8.578125 9.019532-13.035156 14.722656-6.09375 7.800782-12.667969 17.78125-18.292969 29.863282-9.46875-4.136719-17.613281-8.972656-24.40625-13.765625 14.933594-15.199219 34.179688-26.136719 55.734375-30.820313zm-55.738281 186.832032c6.796875-4.792969 14.941406-9.628907 24.40625-13.765626 5.625 12.082032 12.199218 22.0625 18.296875 29.863282 4.453125 5.703125 8.910156 10.605468 13.035156 14.722656-21.554687-4.683594-40.800781-15.621094-55.738281-30.820312zm103.058594 30.820312c4.125-4.117188 8.578124-9.019531 13.035156-14.722656 6.09375-7.800782 12.667968-17.78125 18.292968-29.863282 9.464844 4.136719 17.609376 8.972657 24.40625 13.765626-14.933593 15.199218-34.179687 26.136718-55.734374 30.820312zm0 0" data-original="#000000" class="active-path" data-old_color="#000000" fill="#999CAA"/><path d="m112.089844 431.410156c-4.140625 0-7.5 3.355469-7.5 7.5 0 4.140625 3.359375 7.5 7.5 7.5h172.605468c4.144532 0 7.5-3.359375 7.5-7.5 0-4.144531-3.355468-7.5-7.5-7.5zm0 0" data-original="#000000" class="active-path" data-old_color="#000000" fill="#999CAA"/><path d="m125.980469 129.378906v-14.464844c0-4.140624-3.359375-7.5-7.5-7.5s-7.5 3.359376-7.5 7.5v14.464844c0 4.140625 3.359375 7.5 7.5 7.5s7.5-3.359375 7.5-7.5zm0 0" data-original="#000000" class="active-path" data-old_color="#000000" fill="#999CAA"/><path d="m285.804688 129.378906v-14.464844c0-4.140624-3.355469-7.5-7.5-7.5-4.140626 0-7.5 3.359376-7.5 7.5v14.464844c0 4.140625 3.359374 7.5 7.5 7.5 4.144531 0 7.5-3.359375 7.5-7.5zm0 0" data-original="#000000" class="active-path" data-old_color="#000000" fill="#999CAA"/><path d="m198.394531 144.597656c9.851563 0 19.097657-4.113281 25.371094-11.289062 2.722656-3.121094 2.40625-7.859375-.710937-10.582032-3.121094-2.726562-7.859376-2.410156-10.585938.710938-3.421875 3.914062-8.554688 6.160156-14.074219 6.160156-5.523437 0-10.65625-2.246094-14.078125-6.160156-2.726562-3.121094-7.464844-3.4375-10.582031-.710938-3.121094 2.722657-3.4375 7.460938-.710937 10.582032 6.273437 7.175781 15.519531 11.289062 25.371093 11.289062zm0 0" data-original="#000000" class="active-path" data-old_color="#000000" fill="#999CAA"/><path d="m321.007812 0c-2.664062 0-5.347656.285156-7.984374.84375l-306.515626 65.027344c-3.417968.648437-6.007812 3.902344-6.007812 7.351562v317.964844c0 4.140625 3.359375 7.5 7.5 7.5s7.5-3.359375 7.5-7.5v-310.464844h336.105469c16.367187 0 29.679687 13.316406 29.679687 29.683594v42.78125c0 4.144531 3.359375 7.5 7.5 7.5 4.144532 0 7.5-3.355469 7.5-7.5v-42.78125c0-22.082031-16.101562-40.460938-37.179687-44.042969v-28.191406c0-21.046875-17.089844-38.171875-38.097657-38.171875zm-241.519531 65.722656 236.648438-50.207031c14.199219-3.011719 27.96875 8.125 27.96875 22.65625v27.550781zm0 0" data-original="#000000" class="active-path" data-old_color="#000000" fill="#999CAA"/><path d="m.5 471.773438c0 22.179687 18.046875 40.226562 40.230469 40.226562h310.875c24.636719 0 44.679687-20.042969 44.679687-44.683594v-284.128906c0-4.140625-3.355468-7.5-7.5-7.5-4.140625 0-7.5 3.359375-7.5 7.5v284.128906c0 16.367188-13.3125 29.683594-29.679687 29.683594h-310.875c-13.914063 0-25.230469-11.316406-25.230469-25.226562v-50.585938c0-4.140625-3.355469-7.5-7.5-7.5-4.140625 0-7.5 3.359375-7.5 7.5zm0 0" data-original="#000000" class="active-path" data-old_color="#000000" fill="#999CAA"/></g> </svg>
