<?xml version="1.0" encoding="utf-8"?>
<!-- Generator: Adobe Illustrator 22.0.1, SVG Export Plug-In . SVG Version: 6.00 Build 0)  -->
<svg version="1.1" id="Layer_1" xmlns="http://www.w3.org/2000/svg" xmlns:xlink="http://www.w3.org/1999/xlink" x="0px" y="0px"
	 viewBox="0 0 484 484" style="enable-background:new 0 0 484 484;" xml:space="preserve">
<style type="text/css">
	.st0{fill:#570505;}
	.st1{display:none;fill:#FFFFFF;}
	.st2{fill:#FFFFFF;}
	.st3{font-family:'Evolventa-Regular';}
	.st4{font-size:44.7458px;}
	.st5{font-size:24.3968px;}
	.st6{fill:none;stroke:#FFFFFF;stroke-width:2;stroke-miterlimit:10;}
	.st7{fill:none;stroke:#F0C139;stroke-width:3;stroke-miterlimit:10;}
	.st8{fill:#606062;}
	.st9{fill:#F0C239;}
</style>
<title>logo</title>
<rect class="st0" width="484" height="484"/>
<path class="st1" d="M-0.6,318.2V216.8h121v101.4H-0.6z M74.9,273.8c0.9-0.7,1.8-1.4,2.7-2c0.3-0.3,0.8-0.3,1.1,0.1
	c0.1,0.1,0.1,0.2,0.2,0.3c0.2,0.5,0.5,1,0.7,1.6c0.2,0.5,0.5,0.6,1,0.4c1.2-0.6,2.4-1.1,3.7-1.6c0.6-0.2,0.7-0.6,0.4-1.1
	c-0.4-0.9-0.8-1.9-1.3-2.8c-2-4.5-4-9.1-5.9-13.6c-0.2-0.5-0.4-0.8-1-0.6l-3.9,1.7c-0.5,0.2-0.5,0.5-0.3,0.9s0.4,1,0.7,1.5
	c-0.7,0.5-1.6,0.6-2.4,0.2c-2.2-1.1-4.5-2.1-6.8-3.2c-0.4-0.2-0.9-0.3-1.3-0.1c-1.3,0.4-2.6,0.7-4,0.9c-3.6,0.1-7.3,0-10.9,0
	c-0.2,0-0.4,0-0.7,0c0.2-0.5,0.3-0.8,0.5-1.2c0.3-0.7,0.2-0.9-0.4-1.1l-3.5-1.5c-0.8-0.3-0.9-0.3-1.2,0.5c-1.4,3.2-2.8,6.5-4.3,9.7
	c-1,2.2-1.9,4.4-2.9,6.6c-0.2,0.4-0.3,0.9,0.3,1.1c1.3,0.6,2.6,1.1,3.9,1.7c0.3,0.2,0.6,0.1,0.8-0.2c0-0.1,0.1-0.1,0.1-0.2l0.8-1.7
	c0.1-0.4,0.5-0.7,1-0.5c0.1,0,0.2,0.1,0.3,0.1c1,0.7,2.1,1.5,3.1,2.3c-0.6,0.9-0.6,2.1,0,3c0.6,0.9,1.7,1.3,2.7,1.1
	c0.5,2,1.1,2.6,3.2,2.7c0,0.7,0.4,1.4,1.1,1.8c0.7,0.2,1.4,0.4,2.1,0.5c0.7,1.8,2.2,2.3,3.9,1c0.1-0.1,0.3-0.1,0.5-0.1
	c1.4,0.7,3.1,0.4,4.2-0.6c0.2-0.1,0.4-0.2,0.6-0.1c1.5,0.8,3.3,0.5,4.5-0.7c0.2-0.2,0.5-0.2,0.8-0.2c1.3,0.2,2.5-0.6,2.8-1.9
	l0.1-0.4c1.2,0.6,2.6,0.2,3.3-0.9C76,276.2,75.8,274.8,74.9,273.8z"/>
<path d="M110.9,251.4c1.3,1.4,1.3,3.6,0.2,5.1c-1.1,1.6-3.3,2.2-5.1,1.3l-0.2,0.6c-0.5,1.9-2.3,3.2-4.3,2.8c-0.4,0-0.8,0.1-1.2,0.3
	c-1.7,1.9-4.6,2.3-6.8,1.1c-0.3-0.1-0.7-0.1-1,0.1c-1.7,1.7-4.3,2.1-6.4,1c-0.2-0.1-0.5,0-0.7,0.1c-2.6,1.9-4.9,1.3-5.9-1.5
	c-1.1-0.2-2.2-0.4-3.3-0.8c-1-0.6-1.6-1.6-1.7-2.7c-3.2-0.2-4.1-0.9-4.9-4c-1.6,0.3-3.2-0.3-4.1-1.7c-1-1.4-1-3.2,0-4.6
	c-1.5-1.2-3.1-2.3-4.7-3.4c-0.5-0.4-1.3-0.3-1.7,0.2c-0.1,0.1-0.2,0.2-0.2,0.4l-1.1,2.6c-0.1,0.5-0.6,0.8-1.1,0.7
	c-0.1,0-0.2-0.1-0.3-0.1c-2-0.9-3.9-1.7-5.9-2.6c-0.9-0.4-0.7-1-0.4-1.7c1.4-3.3,2.9-6.7,4.4-10c2.1-4.9,4.3-9.8,6.5-14.7
	c0.5-1.2,0.7-1.3,1.9-0.8l5.4,2.5c1,0.5,1.1,0.7,0.7,1.7c-0.2,0.5-0.4,1.1-0.7,1.8c0.4,0,0.8,0.1,1.1,0.1c5.5,0,11.1,0.1,16.6,0
	c2.1-0.2,4.1-0.7,6.1-1.3c0.7-0.2,1.4-0.1,2,0.2c3.4,1.6,6.9,3.1,10.3,4.9c1.2,0.6,2.6,0.5,3.7-0.3c-0.3-0.8-0.7-1.5-1-2.3
	c-0.3-0.8-0.2-1.1,0.5-1.4l5.9-2.6c0.9-0.4,1.3,0.1,1.5,0.9c3,6.9,6,13.8,9,20.6c0.6,1.4,1.2,2.9,1.9,4.3c0.4,0.8,0.2,1.3-0.7,1.7
	c-1.9,0.8-3.8,1.6-5.6,2.5c-0.8,0.3-1.2,0.2-1.5-0.6s-0.7-1.6-1.1-2.4c-0.2-0.7-0.9-1-1.5-0.9c-0.2,0.1-0.4,0.1-0.5,0.3
	C113.7,249.4,112.3,250.4,110.9,251.4z M91.7,261.1l-1.2-1l-5.5-4.6c-0.4-0.3-0.7-0.8-0.2-1.2c0.5-0.4,0.8-0.1,1.2,0
	c0.4,0.1,0.4,0.3,0.5,0.4c2.4,2,4.8,4,7.3,6.1c1.5,1.3,3.8,1.2,5.2-0.4c0.1-0.1,0.2-0.3,0.3-0.5l-0.6-0.5l-9.9-8.1
	c-0.4-0.4-0.9-0.7-0.5-1.4c0.5-0.6,1-0.2,1.4,0.1l3.7,3c2.4,2,4.8,4,7.3,5.9c0.9,0.7,2.2,0.6,2.9-0.3c0,0,0.1-0.1,0.1-0.1
	c0.6-1,0.4-2.3-0.6-2.9l-9.8-7.9c-0.4-0.3-0.8-0.6-1.2-1c-0.2-0.3-0.2-0.7-0.1-1c0.2-0.2,0.7-0.2,1-0.2c0.3,0.1,0.5,0.3,0.7,0.5
	l12.2,9.6c1,1,2.6,0.9,3.6-0.1c0,0,0.1-0.1,0.1-0.2c0.8-1,0.6-2.5-0.4-3.3c-0.1-0.1-0.1-0.1-0.2-0.2l-19.3-16
	c-1.1-1.3-3-1.4-4.3-0.3c-0.1,0.1-0.2,0.2-0.3,0.3l-1.4,1.1c-2.7,2.4-6.7,2.7-9.8,0.9c-1.1-0.6-1.2-1-0.4-2c2.2-2.9,4.4-5.8,6.6-8.7
	c0.2-0.2,0.3-0.4,0.5-0.8c-4.4,0-8.6,0-12.9,0c-0.3,0-0.7,0.4-0.9,0.8c-2.2,5-4.4,10.1-6.7,15.2c-0.1,0.2-0.1,0.4-0.2,0.6
	c0.7,0.3,1.4,0.7,2.1,1.1c1.5,1,2.9,2.1,4.5,3.3c0.8-0.9,1.5-1.7,2.4-2.5c1.6-1.5,4-1.4,5.5,0.2c0.7,0.8,1.1,1.8,1.1,2.9v0.6
	c2.7,0.5,3.5,1.3,4.1,3.9c3.4,0.4,4.2,1.2,4.2,4.6c2.6,1.1,3,1.9,2.8,5.1C88.5,263.2,90.6,262.7,91.7,261.1L91.7,261.1z M75.3,236.7
	c2.3,1.4,5.3,1.2,7.4-0.5c1-0.8,2-1.7,3-2.5c0.3-0.2,0.7-0.4,1-0.3c1.6,0.5,3.4,0.3,4.9-0.5c0.3-0.1,0.8,0.2,1.2,0.3
	c-0.1,0.4-0.3,0.8-0.5,1.1c-0.4,0.3-0.9,0.6-1.4,0.7l18.6,15.4c0.9-0.6,1.7-1.3,2.5-1.8c1.2-0.8,2.1-2.1,3.8-2.1l-7.2-16.5
	c-0.4,0.1-0.8,0.3-1.2,0.5c-1,0.6-2.2,0.6-3.2,0c-3.5-1.7-7.1-3.4-10.6-5c-0.5-0.2-1-0.3-1.5-0.1c-2.8,0.7-5.5,1.5-8.3,2.1
	c-1.2,0.3-2.3,1-3,2.1C79.1,232,77.2,234.3,75.3,236.7z M74.3,247.9c-0.1-0.9-0.7-1.8-1.5-2.1c-0.8-0.4-1.8-0.2-2.4,0.4
	c-1.1,1-2.1,2-3.1,3c-0.9,0.9-0.9,2.3,0,3.2c0.9,0.9,2.3,0.9,3.2,0l0,0c1.1-1,2.1-2,3-3C73.8,249,74.1,248.4,74.3,247.9L74.3,247.9z
	 M74,257.2c0.5-0.2,0.9-0.4,1.3-0.7c0.8-0.7,1.6-1.5,2.3-2.3c0.8-0.9,0.7-2.4-0.2-3.2c-0.8-0.7-1.9-0.7-2.8-0.1
	c-0.9,0.8-1.8,1.7-2.7,2.6c-0.6,0.7-0.7,1.7-0.2,2.5C72.1,256.8,73.1,257.3,74,257.2L74,257.2z M81,254.1c-0.5,0.2-0.9,0.2-1,0.3
	c-1.2,1.1-2.4,2.3-3.4,3.5c-0.5,0.7-0.3,1.6,0.4,2.1c0,0,0.1,0,0.1,0.1c0.6,0.6,1.6,0.6,2.2,0c1.1-0.9,2.1-2,3-3.1
	c0.3-0.6,0.3-1.3,0.1-1.9C82.1,254.7,81.4,254.4,81,254.1L81,254.1z M85.5,260.8c0-1-0.8-1.9-1.9-1.9c-1.3,0.2-2.4,1.3-2.6,2.6
	c0,1,0.8,1.8,1.8,1.9C83.8,263.4,85.5,261.8,85.5,260.8L85.5,260.8z"/>
<path class="st2" d="M91.7,261.1c-1.1,1.5-3.2,2-4.8,1.1c0.3-3.2-0.1-4-2.8-5.1c0-3.4-0.7-4.2-4.2-4.6c-0.7-2.6-1.5-3.4-4.1-3.9
	v-0.6c0.1-2.2-1.5-4-3.7-4.1c-1.1-0.1-2.1,0.3-2.9,1.1c-0.8,0.8-1.5,1.6-2.4,2.5c-1.5-1.2-3-2.2-4.5-3.3c-0.7-0.4-1.4-0.8-2.1-1.1
	c0.1-0.2,0.1-0.4,0.2-0.6c2.2-5,4.4-10.1,6.7-15.2c0.2-0.3,0.6-0.8,0.9-0.8c4.2,0,8.5,0,12.9,0c-0.2,0.3-0.3,0.6-0.5,0.8
	c-2.2,2.9-4.4,5.8-6.6,8.7c-0.8,1-0.7,1.4,0.4,2c3.1,1.9,7.1,1.5,9.8-0.9l1.4-1.1c1.1-1.3,3-1.4,4.3-0.3c0.1,0.1,0.2,0.2,0.3,0.3
	l19.3,16c1.1,0.7,1.5,2.2,0.8,3.3c0,0.1-0.1,0.2-0.2,0.2c-0.9,1.1-2.5,1.2-3.6,0.3c-0.1,0-0.1-0.1-0.2-0.1L94,246.2
	c-0.2-0.2-0.5-0.5-0.7-0.5s-0.8,0-1,0.2c-0.1,0.3-0.1,0.7,0.1,1c0.4,0.4,0.8,0.7,1.2,1l9.9,7.9c1,0.6,1.2,1.9,0.6,2.9
	c-0.7,0.9-2,1.2-2.9,0.5c0,0-0.1-0.1-0.1-0.1c-2.5-1.9-4.9-3.9-7.3-5.9l-3.7-3c-0.4-0.3-0.9-0.7-1.4-0.1c-0.5,0.6,0,1,0.5,1.4
	l9.7,8.1l0.6,0.5c-1.1,1.7-3.3,2.2-5,1.2c-0.2-0.1-0.3-0.2-0.5-0.3c-2.4-2-4.9-4-7.3-6.1c-0.2-0.2-0.3-0.4-0.5-0.4
	c-0.2,0-0.9-0.2-1.2,0c-0.3,0.2-0.2,0.9,0.2,1.2l5.5,4.6L91.7,261.1z"/>
<path class="st2" d="M75.3,236.7c1.8-2.4,3.7-4.8,5.5-7.2c0.7-1.1,1.8-1.8,3-2.1c2.8-0.6,5.5-1.4,8.3-2.1c0.5-0.1,1-0.1,1.5,0.1
	c3.6,1.6,7.2,3.3,10.6,5c1,0.6,2.2,0.6,3.2,0c0.4-0.2,0.8-0.3,1.2-0.5l7.2,16.5c-1.7,0-2.6,1.3-3.8,2.1c-0.8,0.5-1.6,1.2-2.5,1.8
	L91,235c0.5-0.2,1-0.4,1.4-0.7c0.2-0.3,0.4-0.7,0.5-1.1c-0.4-0.1-0.9-0.4-1.2-0.3c-1.5,0.8-3.3,1-4.9,0.5c-0.3,0-0.7,0.1-1,0.3
	c-1,0.8-2,1.7-3,2.5C80.7,237.9,77.7,238.2,75.3,236.7z"/>
<path class="st2" d="M74.3,247.9c-0.2,0.5-0.4,1-0.8,1.5c-1,1.1-2,2.1-3,3c-0.9,0.9-2.3,0.9-3.2,0c-0.9-0.9-0.9-2.3,0-3.2
	c1-1,2.1-2.1,3.1-3c0.6-0.6,1.6-0.8,2.4-0.4C73.7,246.2,74.3,247,74.3,247.9z"/>
<path class="st2" d="M74,257.2c-1,0.1-1.9-0.4-2.4-1.2c-0.5-0.8-0.4-1.8,0.2-2.4c0.8-0.9,1.7-1.8,2.6-2.6c1-0.7,2.4-0.5,3.2,0.5
	c0.6,0.8,0.6,2-0.1,2.8c-0.7,0.8-1.5,1.6-2.4,2.3C74.9,256.8,74.5,257,74,257.2z"/>
<path class="st2" d="M81,254.1c0.4,0.3,1.1,0.6,1.3,1.1c0.2,0.6,0.2,1.3-0.1,1.9c-0.9,1.1-1.9,2.2-3,3.1c-0.6,0.6-1.6,0.6-2.2,0
	c-0.7-0.4-0.9-1.4-0.5-2.1c0,0,0-0.1,0.1-0.1c1.1-1.2,2.2-2.4,3.4-3.5C80.1,254.3,80.5,254.3,81,254.1z"/>
<path class="st2" d="M85.5,260.7c0,1-1.7,2.7-2.6,2.6c-1,0-1.8-0.9-1.9-1.9c0.3-1.3,1.3-2.4,2.6-2.6
	C84.7,258.9,85.5,259.7,85.5,260.7z"/>
<text transform="matrix(1 0 0 1 159.1729 231.4686)" class="st2 st3 st4">HP G</text>
<text transform="matrix(1 0 0 1 267.5718 231.4686)" class="st2 st3 st4">R</text>
<text transform="matrix(1 0 0 1 294.7681 231.4686)" class="st2 st3 st4">OUP</text>
<text transform="matrix(1 0 0 1 159.1729 280.2762)" class="st2 st3 st5">T</text>
<text transform="matrix(1 0 0 1 168.5572 280.2762)" class="st2 st3 st5">OGETHER WE </text>
<text transform="matrix(1 0 0 1 329.0445 280.2762)" class="st2 st3 st5">C</text>
<text transform="matrix(1 0 0 1 348.3502 280.2762)" class="st2 st3 st5">AN</text>
<line class="st6" x1="159.2" y1="247.1" x2="426.7" y2="247.1"/>
<polygon class="st7" points="144.9,241.8 116.4,291.2 59.4,291.2 30.9,241.8 59.4,192.5 116.4,192.5 "/>
<polygon class="st6" points="136.5,241.8 112.2,283.9 63.6,283.9 39.3,241.8 63.6,199.7 112.2,199.7 "/>
<g>
	<path class="st8" d="M430.9,484c-5.8-15.1-11.2-30.3-13.9-46.3c-1.7-10.1-3.1-20.3-3.7-30.6c-3.6-59.4,12.6-114.5,40-167.3
		c10.1-19.5,16-40,14.6-61.9c-1.2-19.5-6.6-37.9-15-55.7c-12.4-26.5-30.2-50.1-47-74.1c-8.1-11.6-16.3-23.1-21.6-36.1
		c-1.5-3.6-2.8-8-3-11.9c7.8,0,16.1,0,23.6,0c1.7,0.1,0.7,1.5,0.7,2.6c-0.7,12.2,4.6,22.9,9.8,33.7c8.4,17.6,20.5,33.1,32.2,48.8
		c13.6,18.2,24.4,37.8,30.2,59.4c6.6,24.4,6.5,49.1,1.9,73.8c-4,21.7-11.7,42.4-20.6,62.7c-11.9,26.8-20.7,54.3-24.2,83.2
		c-4.8,39.4-0.6,77.5,19.2,113.3c1.1,2.1,3.1,4,2.5,6.6C448,484,439.5,484,430.9,484z"/>
	<path class="st9" d="M456.7,484c-12.5-19.1-19.4-40-22.7-62c-7.3-49.1,3.7-95.6,23.5-140.7c9.1-20.7,16.8-41.7,21-63.9
		c8.5-44.8-0.2-86.3-26.9-124.4c-9.6-13.7-20.7-26.5-29.1-40.9c-7.6-13-15-26-17.9-40.9c-0.7-3.5-0.9-7.7,0.3-11.2
		c7.2-0.1,14.9,0,21.8,0c2.8,0.2,1.3,2.4,1.3,4c0.1,17.6,7.2,33.2,14.8,48.7c6.7,13.8,15.2,26.6,24.1,39.2
		c5.1,7.2,9.7,14.8,13.9,22.5c1.6,3,3.5,6.2,3.2,9.6c0,44.4,0,88.8,0.1,133.1c0,11.1-5.9,21.1-9.3,31.5
		c-4.9,15.3-10.8,30.2-16.6,45.2c-9.4,24.2-10,48.8-4.3,73.7c5.3,22.9,15,44.1,27.9,64.1c1,1.5,1.9,3.1,2.3,4.8c0,2.4,0,5,0,7.3
		C475.1,484,465.6,484,456.7,484z"/>
	<path d="M484,258.9c0.1,1.3,0,2.6,0,3.9c0,70.1,0,140.2,0,210.4c0,1,0,2.5,0,3.5c-12.6-17.2-21.3-36.7-27.6-56.6
		c-9.7-30.9-9.7-61.5,2.9-92C468.7,305.4,476.2,282.1,484,258.9z"/>
	<path d="M426.7,0c17.8-0.1,36,0,53.7,0c0.1,0,3.5,0,3.5,0s0,4.8,0,4.9c0,34.9,0,69.8,0,104.7c0,4.2,0.1,8.9,0,13.1
		c-11.7-24-30.6-45-42.3-69c-6.4-13-11.9-26.2-14.4-40.4C426.5,9,426.7,4.2,426.7,0z"/>
</g>
</svg>
